<svg xmlns="http://www.w3.org/2000/svg" width="280" height="180" viewBox="0 0 28 18" role="img" aria-label="中華民國國旗">
  <!-- Red field -->
  <rect width="28" height="18" fill="#d40000"/>
  <!-- Blue canton -->
  <rect width="12" height="9" fill="#0033a0"/>
  <!-- White sun -->
  <g transform="translate(6,4.5)">
    <circle r="2.1" fill="#fff"/>
    <g fill="#fff">
      <rect x="-0.25" y="-4.2" width="0.5" height="1.7" rx="0.2"/>
      <rect x="-0.25" y="2.5" width="0.5" height="1.7" rx="0.2"/>
      <rect x="-4.2" y="-0.25" width="1.7" height="0.5" rx="0.2"/>
      <rect x="2.5" y="-0.25" width="1.7" height="0.5" rx="0.2"/>
      <g transform="rotate(30)">
        <rect x="-0.25" y="-4.2" width="0.5" height="1.7" rx="0.2"/>
        <rect x="-0.25" y="2.5" width="0.5" height="1.7" rx="0.2"/>
      </g>
      <g transform="rotate(60)">
        <rect x="-0.25" y="-4.2" width="0.5" height="1.7" rx="0.2"/>
        <rect x="-0.25" y="2.5" width="0.5" height="1.7" rx="0.2"/>
      </g>
      <g transform="rotate(90)">
        <rect x="-0.25" y="-4.2" width="0.5" height="1.7" rx="0.2"/>
        <rect x="-0.25" y="2.5" width="0.5" height="1.7" rx="0.2"/>
      </g>
      <g transform="rotate(120)">
        <rect x="-0.25" y="-4.2" width="0.5" height="1.7" rx="0.2"/>
        <rect x="-0.25" y="2.5" width="0.5" height="1.7" rx="0.2"/>
      </g>
      <g transform="rotate(150)">
        <rect x="-0.25" y="-4.2" width="0.5" height="1.7" rx="0.2"/>
        <rect x="-0.25" y="2.5" width="0.5" height="1.7" rx="0.2"/>
      </g>
    </g>
  </g>
</svg>
